HIERARCHY
ROOT pelvis
{
  OFFSET 0 100 0
  CHANNELS 6 Xposition Yposition Zposition Zrotation Xrotation Yrotation
  JOINT pelvis_right_femur
  {
    OFFSET -10.78128 -3.44521 -0.5502486
    CHANNELS 3 Zrotation Xrotation Yrotation
    JOINT right_femur_tibia
    {
      OFFSET -0.8047443 -44.0398 -0.1307829
      CHANNELS 3 Zrotation Xrotation Yrotation
      JOINT right_tibia_foot
      {
        OFFSET 3.006224 -47.83518 -5
        CHANNELS 3 Zrotation Xrotation Yrotation
        End Site
        {
          OFFSET 0 -5 15
        }
      }
    }
  }
  JOINT pelvis_left_femur
  {
    OFFSET 10.78128 -3.44521 -0.5502486
    CHANNELS 3 Zrotation Xrotation Yrotation
    JOINT left_femur_tibia
    {
      OFFSET 0.8047443 -44.0398 -0.1307829
      CHANNELS 3 Zrotation Xrotation Yrotation
      JOINT left_tibia_foot
      {
        OFFSET -4.370144 -48.10324 -4.275266
        CHANNELS 3 Zrotation Xrotation Yrotation
        End Site
        {
          OFFSET 0 -5 15
        }
      }
    }
  }
  JOINT pelvis_spine1
  {
    OFFSET 0 6.468898 -3.129235
    CHANNELS 3 Zrotation Xrotation Yrotation
    JOINT spine1
    {
      OFFSET 0 23.15396 4.99043
      CHANNELS 3 Zrotation Xrotation Yrotation
      JOINT spine2
      {
        OFFSET 0 20.79997 -5.064912
        CHANNELS 3 Zrotation Xrotation Yrotation
        JOINT neck
        {
          OFFSET 0 14.38658 9.616178
          CHANNELS 3 Zrotation Xrotation Yrotation
          End Site
          {
            OFFSET 0 20 0
          }
        }
      }
      JOINT right_manubrium
      {
        OFFSET -5.722621 16.35077 3.967754
        CHANNELS 3 Zrotation Xrotation Yrotation
        JOINT right_clavicle
        {
          OFFSET -13.16364 1.694482 -4.693211
          CHANNELS 3 Zrotation Xrotation Yrotation
          JOINT right_humerus
          {
            OFFSET -28.5034 -0.3100689 -2.792744
            CHANNELS 3 Zrotation Xrotation Yrotation
            JOINT right_radius
            {
              OFFSET -25.15693 0.02248979 -1.271978
              CHANNELS 3 Zrotation Xrotation Yrotation
              End Site
              {
                OFFSET -15 0 0
              }
            }
          }
        }
      }
      JOINT left_manubrium
      {
        OFFSET 5.722621 16.35077 3.967754
        CHANNELS 3 Zrotation Xrotation Yrotation
        JOINT left_clavicle
        {
          OFFSET 13.16364 1.694482 -4.693211
          CHANNELS 3 Zrotation Xrotation Yrotation
          JOINT left_humerus
          {
            OFFSET 29.39168 -1.063119 -2.237045
            CHANNELS 3 Zrotation Xrotation Yrotation
            JOINT left_radius
            {
              OFFSET 24.59957 -0.9528479 0.9047498
              CHANNELS 3 Zrotation Xrotation Yrotation
              End Site
              {
                OFFSET 15 -0 -0
              }
            }
          }
        }
      }
    }
  }
}
MOTION
Frames: 7
Frame Time: 0.0416666666667
150.6148 102.98 3010.323 -0.2974677 -6.376905 -18.89752 -1.128939 20.34912 1.164446 -0 35.96358 -0 -7.088854 0.8990632 1.767855 -4.156843 -19.21653 -10.17082 -0 16.93845 -0 -2.075873 -7.066573 20.9668 0.08317882 -1.651363 7.895938 0.380717 15.52299 -6.409986 0.1280209 21.41485 3.381822 3.649179 -16.30544 2.239466 -0.6611629 -27.04288 13.10669 89.68529 23.1611 -13.8161 -0 0 22.78799 -20.32605 9.533976 7.400767 2.637647 -24.86012 -10.18139 -93.03567 7.968694 31.44687 0 0 -6.056988 12.20473 12.94387 -3.863169
149.4572 104.0452 3017.266 -0.1856288 -6.994207 -18.49019 -1.52001 15.86134 1.051305 -0 44.05209 -0 -7.801269 7.718887 1.585082 -5.194331 -14.80915 -10.32789 -0 18.48996 -0 -0.4342754 -8.009283 20.67883 0.01991233 -1.566747 7.602199 0.08105491 15.87229 -6.385516 0.2950297 21.63609 3.354889 3.961415 -15.94503 2.12256 -0.388189 -26.1433 13.13651 90.15745 23.41347 -14.64124 -0 0 21.86704 -20.71271 9.355401 6.952481 2.998694 -25.26267 -10.62021 -92.34489 7.816452 29.40723 0 0 -6.910684 12.91653 13.11272 -4.958633
148.387 105.4072 3023.77 -0.4538909 -7.490651 -17.84908 -1.189308 9.541124 0.8082034 -0 49.99847 -0 -8.424191 11.80142 0.8846565 -5.566922 -9.665117 -10.07073 -0 18.7231 -0 0.8911343 -9.129236 19.95802 -0.1621083 -1.553199 7.209175 -0.3586587 16.27215 -6.333321 0.4244022 21.87165 3.381659 4.571538 -15.02115 1.737855 0.2951467 -24.89374 13.15922 90.29287 23.82966 -15.52091 -0 0 20.95171 -21.37809 9.187042 6.538965 3.644263 -25.91149 -11.22597 -91.43489 7.402855 26.69213 0 0 -8.006769 13.63763 13.28209 -6.139674
147.4184 106.6925 3029.738 -0.8715411 -7.821954 -17.09143 -0.6303566 2.758974 0.4097789 -0 51.80368 -0 -8.653265 12.57914 -0.1413351 -5.541615 -4.620757 -9.892749 -0 17.55215 -0 1.295102 -10.6885 19.0922 -0.4877925 -1.604862 6.710887 -0.8831 16.54891 -6.220023 0.4838098 22.09866 3.551895 5.424863 -13.75749 1.202884 1.318165 -23.43737 13.1063 89.91743 24.44646 -16.15457 -0 0 20.1951 -22.30145 9.077318 6.373472 4.584344 -26.63374 -11.73918 -90.45313 6.850192 23.59914 0 0 -9.170959 14.23409 13.43734 -7.227795
146.5156 107.5573 3035.257 -1.178443 -7.914821 -16.31554 -0.234289 -3.602699 -0.1838551 -0 48.97265 -0 -8.414224 10.92719 -1.234764 -5.347929 -0.1544506 -9.870406 -0 15.40167 -0 0.9032703 -12.63198 18.13364 -0.9236305 -1.659984 6.121869 -1.364733 16.49208 -6.045314 0.4779599 22.28196 3.991587 6.329959 -12.77916 0.8694738 2.430052 -21.9795 12.91957 89.12577 25.34512 -16.38714 -0 0 19.55691 -23.24843 9.037546 6.50254 5.752888 -27.15749 -11.77701 -89.59313 6.427868 20.55948 0 0 -10.21652 14.80914 13.57293 -8.262316
145.6167 107.8209 3040.508 -1.242143 -7.71553 -15.58429 -0.1059856 -9.204631 -0.9346922 -0 42.68692 -0 -7.783946 8.235051 -2.199397 -5.163966 3.630056 -9.869326 -0 13.04949 -0 0.1769449 -14.70738 17.10703 -1.371608 -1.663637 5.496688 -1.647674 16.00433 -5.879528 0.4399362 22.36499 4.731382 7.042224 -12.66711 1.064807 3.334824 -20.71928 12.61646 88.2231 26.50699 -16.31363 -0 0 18.89616 -23.89332 9.08004 6.785945 6.992581 -27.30095 -11.11763 -88.97189 6.364577 17.96697 0 0 -11.10836 15.53071 13.69013 -9.357337
144.6645 107.4805 3045.677 -1.077419 -7.235196 -14.93389 -0.1386227 -14.02958 -1.729593 -0 34.76916 -0 -6.918972 5.634269 -2.940024 -5.091069 6.83134 -9.764169 -0 11.22045 -0 -0.4670516 -16.64042 16.10553 -1.736685 -1.612604 4.905134 -1.658277 15.18296 -5.806949 0.4038146 22.31426 5.647825 7.445903 -13.49757 1.807545 3.88973 -19.74673 12.27463 87.4808 27.77099 -16.16237 -0 0 18.13288 -24.05785 9.209557 7.050561 8.125647 -27.09232 -9.882423 -88.57268 6.692723 15.97448 0 0 -11.95975 16.3943 13.78121 -10.48604
